<svg xmlns="http://www.w3.org/2000/svg" viewBox="0 0 1538 865"><path fill="#0a9600" d="M298.11 464h138.76a.63.63 0 0 1 .63.63v68.74a.63.63 0 0 1-.63.63h-209a.63.63 0 0 1-.63-.63l.01-138.74a.63.63 0 0 0-.63-.63h-68.74a.63.63 0 0 0-.63.63v138.74a.63.63 0 0 1-.63.63H87.63a.63.63 0 0 1-.63-.63V394.63a.63.63 0 0 0-.63-.63l-68.74.01a.63.63 0 0 1-.63-.63v-68.75a.63.63 0 0 1 .63-.63h208.99a.63.63 0 0 1 .63.63v68.74a.63.63 0 0 0 .63.63h68.77a.63.63 0 0 0 .63-.63l-.04-68.74a.63.63 0 0 1 .63-.63h139a.63.63 0 0 1 .63.63v68.74a.63.63 0 0 1-.63.63H298.13a.63.63 0 0 0-.63.63l-.02 68.74a.63.63 0 0 0 .63.63Zm538.57-51.33q10.65-7.66 23.16-7.47c24.14.37 29.27 19.54 29.36 39.45q.12 27.01.02 54.06a.28.28 0 0 1-.28.28l-30.83.03a.53.53 0 0 1-.53-.53q-.16-23.61-.05-47.24c.03-6.7.6-17.58-8.52-19.32-7.27-1.39-12.74 3.83-12.74 11.13l-.04 55.43a.5.5 0 0 1-.5.5l-30.5.03a.48.48 0 0 1-.48-.48V384.26a.48.47-11 0 1 .3-.44l30.65-12.25a.4.4 0 0 1 .55.37v40.51q0 .53.43.22Z"/><path d="M1454.99 412.45a.4.4 0 0 0 .63.32q13.22-9.69 28.63-7.06c18.42 3.15 23.77 19.43 23.77 36.04q0 28.35-.03 56.79a.45.44-90 0 1-.44.45l-30.55.04a.74.74 0 0 1-.74-.74q-.02-25.09 0-50.61c0-9.02-2.14-18.01-13.61-15.54-8.77 1.88-7.95 15.82-7.8 23.8.27 15.15.08 27.94.18 42.21a.84.84 0 0 1-.84.84l-30.18.02a.5.5 0 0 1-.51-.5v-114.1a.66.66 0 0 1 .41-.61l30.58-12.21a.46.46 0 0 1 .63.43l-.13 40.43Zm-502.18-3.64c-13.98 13.32-12.7 72.74 19.25 61.2 6.38-2.3 10.83-8.66 13.81-14.53a1.8 1.79-62.6 0 1 2.44-.78l26.69 14.14a.63.63 0 0 1 .3.75q-.59 1.77-1.54 3.42-15.01 25.78-43.27 27.69c-31.13 2.1-53.98-14.41-60.04-45.19-9.07-46.08 16.17-88.66 68.38-79.93 19.87 3.33 29.94 16.96 36.36 34.73a.38.37 69.4 0 1-.21.48l-29.79 11.69a.84.84 0 0 1-1.09-.5c-1.86-5.16-4.71-11.49-9.31-14.77-6.58-4.69-16.22-3.88-21.98 1.6Z"/><path fill="#0a9600" d="M509 405.55v-28.6a.45.45 0 0 1 .45-.45H611.3a.45.45 0 0 1 .45.45v28.6a.45.45 0 0 1-.45.45h-33.35a.45.45 0 0 0-.45.45v92.09a.45.45 0 0 1-.45.45l-33.11.03a.45.45 0 0 1-.45-.45l.01-92.12a.45.45 0 0 0-.45-.45h-33.6a.45.45 0 0 1-.45-.45Zm138.03 95.23c-32.46-1.85-42.63-34.04-37.43-61.09 4.61-24.03 23-37.23 47.33-34 28.36 3.77 36.32 31.26 34.15 55.97a.6.6 0 0 1-.6.55l-52.82.03a.32.32 0 0 0-.32.35c1.86 20.71 27.32 14.33 38.68 7.84a.64.64 0 0 1 .87.22l11.54 19.24a.55.55 0 0 1-.19.76q-19.06 11.39-41.21 10.13Zm16.22-58.84c-1.21-17.56-24.3-18.8-25.86.06a.47.46 2.2 0 0 .47.5h24.87a.52.52 0 0 0 .52-.56Zm92.44-9.8c-9.25-5.19-15.49 3.02-16.88 11.35-1.74 10.37-2.13 32.93 13.16 31.74 7.13-.55 10.61-6.42 14.64-11.32a.55.55 0 0 1 .76-.08l19.01 14.78a.58.56-55.4 0 1 .13.75c-7.11 11.43-17.12 19.75-30.69 21.23-38.02 4.15-53.64-26.56-48.08-59.61 4.28-25.43 23.09-38.06 48.26-35.5 13.58 1.38 22.61 9.16 29.7 20.2a.65.65 0 0 1-.16.87l-21.08 15.95a.31.31 0 0 1-.46-.11c-1.95-3.79-4.67-8.21-8.31-10.25Z"/><path d="M1066.05 412.7q-.04 1.05.74.35 13.93-12.4 31.48-5.35c1.9.77 2.5 1.08 1.98 3.33q-3.45 15.19-6.79 30.06a.53.52-59 0 1-.91.23c-8.2-9.6-25.83-11.39-26.21 5.63q-.59 25.7-.31 51.44a.59.59 0 0 1-.59.6l-30.31.02a.63.63 0 0 1-.63-.63v-90.82a.56.56 0 0 1 .56-.56h30.43a.72.72 0 0 1 .72.74l-.16 4.96Zm188.2-.23a.38.37-18.2 0 0 .6.3q9.42-7 20.47-7.57c24.34-1.25 31.83 16.92 31.89 37.77q.08 27.76.02 55.54a.49.49 0 0 1-.49.49h-30.7a.52.52 0 0 1-.52-.51q-.04-25.77-.03-51.48c.01-6.61-1.16-14.85-9.7-15.13q-11.29-.37-11.39 12.58-.22 26.98-.15 54.01a.53.52-.6 0 1-.52.52l-30.5.04a.48.48 0 0 1-.48-.48v-91.14a.41.4 90 0 1 .4-.41h30.48a.62.62 0 0 1 .62.62v4.85Zm105.99 87.91c-16.64-2.3-29.16-14.31-32.71-30.63-4.58-21.08-2.11-46.94 18.38-58.9 10.1-5.9 25.37-7.48 36.57-3.7q14.16 4.77 21.79 18.53a.9.89-33 0 1-.25 1.15l-20.47 15.49a.52.51 56.7 0 1-.75-.16q-1.64-2.84-3.26-5.38c-5.08-7.92-16.66-8.64-20.13 1.3-3.03 8.7-3.82 19.71-.52 28.88 3.78 10.49 14.79 10.8 21.65 2.85q2.52-2.92 4.95-5.93a.51.5 38.4 0 1 .7-.08l18.99 14.8a.61.61 0 0 1 .14.8c-10.7 16.94-25.02 23.76-45.08 20.98Zm-192.43-6.99q-12.13 9.02-27.38 7.31c-21.1-2.37-24.81-22.03-24.88-39.38q-.12-26.88-.02-53.77a.55.55 0 0 1 .55-.55h30.57a.53.53 0 0 1 .53.52q.13 25.06.06 49.96c-.02 6.47.18 15.44 8.55 16.65 9.14 1.33 12.43-5.24 12.44-13.03q.04-26.7.01-53.49a.61.61 0 0 1 .61-.61h30.52a.63.62 0 0 1 .63.62v90.88a.5.5 0 0 1-.5.5h-30.66a.63.63 0 0 1-.63-.66l.17-4.65q.03-.74-.57-.3Z"/></svg>