<?xml version="1.0" encoding="UTF-8"?>
<svg version="1.1" xmlns="http://www.w3.org/2000/svg" width="768" height="154">
<path d="M0 0 C51.15 0 102.3 0 155 0 C155 50.82 155 101.64 155 154 C103.85 154 52.7 154 0 154 C0 103.18 0 52.36 0 0 Z M36 24 C36 58.98 36 93.96 36 130 C42.6 130 49.2 130 56 130 C56 116.14 56 102.28 56 88 C62.001875 88.12375 68.00375 88.2475 74.1875 88.375 C77.01671021 88.42599854 77.01671021 88.42599854 79.90307617 88.47802734 C81.40805798 88.51325284 82.91302368 88.54917625 84.41796875 88.5859375 C85.1912854 88.59729736 85.96460205 88.60865723 86.76135254 88.62036133 C90.89680642 88.73088867 94.34782914 88.9687868 98 91 C100.36931814 94.5539772 100.36348575 96.44996521 100.59765625 100.6796875 C100.63684677 101.32946564 100.67603729 101.97924377 100.71641541 102.64871216 C100.84028783 104.72375036 100.95204457 106.79920797 101.0625 108.875 C101.17843318 110.94347923 101.29698191 113.0117527 101.41929626 115.0798645 C101.52969678 116.96163135 101.63235958 118.84384742 101.73461914 120.72607422 C101.96129903 124.31024533 101.96129903 124.31024533 103 129 C109.6 129 116.2 129 123 129 C122.9023723 124.89192894 122.79922412 120.78452895 122.68261719 116.67700195 C122.64464703 115.28352927 122.6097423 113.88996919 122.578125 112.49633789 C122.48222505 98.77455452 122.48222505 98.77455452 118 86 C116.21427998 84.6727519 116.21427998 84.6727519 114.125 83.75 C113.44695312 83.41484375 112.76890625 83.0796875 112.0703125 82.734375 C109.73780777 81.77712803 109.73780777 81.77712803 106 82 C106 81.34 106 80.68 106 80 C106.86625 79.9175 107.7325 79.835 108.625 79.75 C113.28727215 78.71393952 116.44482605 76.61071588 119.75 73.1875 C123.37901686 66.8367205 123.33666818 60.24977831 123.3125 53.125 C123.32861328 52.18269531 123.34472656 51.24039063 123.36132812 50.26953125 C123.36648134 42.81798079 122.19676946 36.48453087 118.1875 30.125 C111.951892 24.06755223 104.34572519 23.87080203 96.05493164 23.88647461 C95.05749136 23.88629381 95.05749136 23.88629381 94.03990078 23.88610935 C91.91328378 23.88684852 89.78675732 23.89443069 87.66015625 23.90234375 C86.3501062 23.90335083 85.04005615 23.90435791 83.69030762 23.90539551 C78.81436279 23.91061253 73.93843048 23.92457378 69.0625 23.9375 C58.151875 23.958125 47.24125 23.97875 36 24 Z " fill="#000000" transform="translate(306,0)"/>
<path d="M0 0 C50.82 0 101.64 0 154 0 C154 50.82 154 101.64 154 154 C103.18 154 52.36 154 0 154 C0 103.18 0 52.36 0 0 Z M13 24 C16.55916595 43.91295735 20.54179985 63.72382657 24.67602539 83.52392578 C25.53179378 87.62332576 26.3804856 91.72415796 27.22752666 95.82536888 C27.88919825 99.02420287 28.55508668 102.22214796 29.22220802 105.4198494 C29.53740923 106.93376451 29.85117556 108.44797915 30.16342735 109.96250534 C30.59634756 112.05976781 31.03509599 114.15572968 31.4753418 116.25146484 C31.84576851 118.03126236 31.84576851 118.03126236 32.22367859 119.84701538 C33.38973816 125.14279972 33.38973816 125.14279972 36.56640625 129.29296875 C40.34207205 130.38991178 44.02600466 130.32820882 47.9375 130.3125 C48.73607422 130.32861328 49.53464844 130.34472656 50.35742188 130.36132812 C51.5243457 130.36229492 51.5243457 130.36229492 52.71484375 130.36328125 C53.41730225 130.36626221 54.11976074 130.36924316 54.84350586 130.37231445 C57.86331716 129.85095 59.55285044 128.86302234 62 127 C63.36508174 123.87962423 63.36508174 123.87962423 64.11035156 120.21069336 C64.34965078 119.2122674 64.34965078 119.2122674 64.59378433 118.19367123 C65.08240143 116.13313621 65.54277039 114.06769776 66 112 C66.27807495 110.8056131 66.5561499 109.6112262 66.84265137 108.38064575 C67.66566138 104.8019628 68.45434519 101.21718933 69.234375 97.62890625 C69.65870819 95.69639259 69.65870819 95.69639259 70.09161377 93.72483826 C70.83103495 90.35716145 71.56646725 86.98862672 72.30096436 83.61987305 C73.0562257 80.1594477 73.81540519 76.69988217 74.57421875 73.24023438 C76.05323428 66.49430855 77.5280219 59.74746482 79 53 C80.47873458 57.22433752 81.61418538 61.41315614 82.57226562 65.78393555 C82.71564865 66.43348206 82.85903168 67.08302856 83.00675964 67.7522583 C83.31529775 69.15147493 83.6224252 70.55100324 83.92826843 71.95081139 C84.41278816 74.16661911 84.9018562 76.3813784 85.39221191 78.59590149 C86.78484093 84.88841322 88.17037344 91.18247244 89.55029297 97.4777832 C90.39662802 101.33732217 91.24910459 105.19546259 92.10539246 109.05280495 C92.42992108 110.52069619 92.75205057 111.98911998 93.07173157 113.45807457 C93.51798005 115.50811758 93.9719754 117.55630171 94.42773438 119.60424805 C94.68373413 120.76973679 94.93973389 121.93522552 95.20349121 123.1360321 C95.88619151 126.16671753 95.88619151 126.16671753 98 129 C101.73840552 130.55094522 105.94899826 130.18386417 109.9375 130.1875 C110.64068359 130.19974609 111.34386719 130.21199219 112.06835938 130.22460938 C116.12318318 130.23601 119.49919889 130.14690013 123 128 C125.34969218 123.42186888 125.98903882 118.36064268 126.87939453 113.34448242 C127.14317902 111.89498199 127.14317902 111.89498199 127.41229248 110.41619873 C127.99081137 107.23017351 128.56184299 104.04285478 129.1328125 100.85546875 C129.53305765 98.64292705 129.93376996 96.4304698 130.33493042 94.21809387 C131.38843902 88.40091101 132.43559944 82.58260279 133.48144531 76.76403809 C134.55020731 70.82442169 135.62496448 64.88589066 136.69921875 58.94726562 C138.80535097 47.29922998 140.90422346 35.64990336 143 24 C136.73 24 130.46 24 124 24 C122.58944637 28.93693769 121.43019456 33.65075279 120.57958984 38.67944336 C120.38895714 39.77825333 120.38895714 39.77825333 120.19447327 40.89926147 C119.77966662 43.29551213 119.37026176 45.69265108 118.9609375 48.08984375 C118.67266723 49.76141534 118.38405734 51.43292839 118.09512329 53.10438538 C117.33881687 57.48494681 116.58710253 61.866284 115.83636475 66.24780273 C115.06817859 70.72622945 114.29562035 75.20390163 113.5234375 79.68164062 C112.01136221 88.45369703 110.50414056 97.2265798 109 106 C108.67 106 108.34 106 108 106 C107.68719589 104.54420784 107.68719589 104.54420784 107.36807251 103.05900574 C105.40345496 93.91975425 103.43207889 84.78198365 101.45405006 75.64562511 C100.4373071 70.94831554 99.42296521 66.25051399 98.4140625 61.55151367 C97.44061133 57.01805716 96.46091624 52.48599168 95.4768486 47.95482826 C95.10222328 46.2245334 94.72986316 44.49374651 94.3597908 42.76247215 C93.84168693 40.34055665 93.31560872 37.92050435 92.78759766 35.50073242 C92.63582565 34.78216064 92.48405365 34.06358887 92.3276825 33.32324219 C91.59753395 30.01567154 90.90548234 27.85822351 89 25 C85.64548676 23.69166377 82.12726467 23.79945338 78.5625 23.75 C77.45003906 23.72421875 76.33757812 23.6984375 75.19140625 23.671875 C71.55588334 24.04566193 69.79667713 24.65217229 67 27 C65.30481918 31.35898628 64.29884574 35.81958066 63.30419922 40.38232422 C63.14785004 41.09521103 62.99150085 41.80809784 62.83041382 42.54258728 C62.31873421 44.87928792 61.81168057 47.21696597 61.3046875 49.5546875 C60.94910797 51.1828526 60.59323821 52.81095433 60.23709106 54.43899536 C59.30372393 58.70937396 58.37428642 62.98059845 57.44567871 67.25201416 C56.49611641 71.61644622 55.54282077 75.98006252 54.58984375 80.34375 C52.72291817 88.89504162 50.86014532 97.44723094 49 106 C47.54274456 101.16477755 46.45519484 96.41400487 45.59545898 91.42822266 C45.46997681 90.70704254 45.34449463 89.98586243 45.21520996 89.24282837 C44.94565288 87.69082744 44.6778186 86.13852647 44.41155815 84.58595657 C43.99047698 82.13132031 43.56459115 79.67755989 43.13746643 77.22396851 C42.07905818 71.13831889 41.02869437 65.05128657 39.97839355 58.9642334 C39.087639 53.80345233 38.19370914 48.64324186 37.29536629 43.48377609 C36.87503985 41.06180046 36.4594793 38.63903709 36.04405212 36.21621704 C35.78798833 34.74257336 35.53169901 33.26896884 35.27514648 31.79541016 C35.0524559 30.50414215 34.82976532 29.21287415 34.60032654 27.88247681 C34.29893438 25.1162414 34.29893438 25.1162414 33 24 C31.5112814 23.91330568 30.018555 23.89296506 28.52734375 23.90234375 C27.71773193 23.90484131 26.90812012 23.90733887 26.07397461 23.90991211 C25.03893799 23.91901611 24.00390137 23.92812012 22.9375 23.9375 C21.16479709 23.94898847 19.39209181 23.9601147 17.61938477 23.97094727 C15.30969238 23.98547363 15.30969238 23.98547363 13 24 Z " fill="#000000" transform="translate(0,0)"/>
<path d="M0 0 C50.82 0 101.64 0 154 0 C154 50.82 154 101.64 154 154 C103.18 154 52.36 154 0 154 C0 103.18 0 52.36 0 0 Z M34 24 C34 58.98 34 93.96 34 130 C47.7053125 130.061875 47.7053125 130.061875 61.6875 130.125 C64.54494873 130.14320801 67.40239746 130.16141602 70.34643555 130.18017578 C72.65152805 130.18602567 74.95662264 130.19112004 77.26171875 130.1953125 C78.4259436 130.20554443 79.59016846 130.21577637 80.78967285 130.22631836 C92.55721833 130.22877942 105.7168425 130.00860494 115.1875 122.1953125 C124.33971364 113.00945101 126.13293588 100.08475173 126.203125 87.59375 C126.20882507 86.79199341 126.21452515 85.99023682 126.22039795 85.16418457 C126.22981154 83.46982119 126.23636739 81.7754398 126.24023438 80.08105469 C126.24986581 77.53546531 126.28089242 74.99071031 126.3125 72.4453125 C126.39743886 59.29102872 126.27622362 44.21557216 117.09375 33.84765625 C106.18536192 23.2273418 92.02070416 23.84029534 77.65234375 23.90234375 C75.98516296 23.90385437 75.98516296 23.90385437 74.28430176 23.90539551 C70.16869054 23.91059145 66.05309413 23.92455248 61.9375 23.9375 C52.718125 23.958125 43.49875 23.97875 34 24 Z " fill="#000000" transform="translate(614,0)"/>
<path d="M0 0 C30.03 0 60.06 0 91 0 C91 11.55 91 23.1 91 35 C84.4 35 77.8 35 71 35 C71 29.72 71 24.44 71 19 C59.12 19 47.24 19 35 19 C35 27.25 35 35.5 35 44 C44.57 44 54.14 44 64 44 C64 49.61 64 55.22 64 61 C54.43 61 44.86 61 35 61 C35 70.24 35 79.48 35 89 C47.21 89 59.42 89 72 89 C72 82.73 72 76.46 72 70 C78.6 70 85.2 70 92 70 C92 82.54 92 95.08 92 108 C61.64 108 31.28 108 0 108 C0 101.73 0 95.46 0 89 C4.62 89 9.24 89 14 89 C14 65.9 14 42.8 14 19 C9.38 19 4.76 19 0 19 C0 12.73 0 6.46 0 0 Z " fill="#000000" transform="translate(489,23)"/>
<path d="M0 0 C24.42 0 48.84 0 74 0 C74 6.27 74 12.54 74 19 C65.42 19 56.84 19 48 19 C48 42.1 48 65.2 48 89 C56.58 89 65.16 89 74 89 C74 95.27 74 101.54 74 108 C49.58 108 25.16 108 0 108 C0 101.73 0 95.46 0 89 C8.58 89 17.16 89 26 89 C26 65.9 26 42.8 26 19 C17.42 19 8.84 19 0 19 C0 12.73 0 6.46 0 0 Z " fill="#000000" transform="translate(193,23)"/>
<path d="M0 0 C9.466875 -0.0928125 9.466875 -0.0928125 19.125 -0.1875 C21.1064502 -0.21481201 23.08790039 -0.24212402 25.12939453 -0.27026367 C26.713861 -0.27903203 28.29833427 -0.28667514 29.8828125 -0.29296875 C30.69419678 -0.30831665 31.50558105 -0.32366455 32.34155273 -0.33947754 C38.10077245 -0.34211696 42.04362204 0.78271653 46.75 4.3125 C52.57182828 12.17196818 51.18636328 24.41788718 51.18530273 33.67114258 C51.18748434 35.79724306 51.20567764 37.92281932 51.22460938 40.04882812 C51.307774 59.77553449 51.307774 59.77553449 47 67 C41.25830493 71.07962545 36.16635789 71.14158497 29.296875 71.09765625 C28.5538916 71.09664917 27.8109082 71.09564209 27.04541016 71.09460449 C24.28025765 71.08938776 21.51512721 71.0754265 18.75 71.0625 C12.5625 71.041875 6.375 71.02125 0 71 C0 47.57 0 24.14 0 0 Z " fill="#000000" transform="translate(669,41)"/>
<path d="M0 0 C5.7665847 -0.0918571 11.5306297 -0.17148553 17.29736328 -0.21972656 C19.25871381 -0.23983632 21.22000444 -0.26712818 23.18115234 -0.30175781 C26.00112695 -0.35030421 28.82030865 -0.37297486 31.640625 -0.390625 C32.95489471 -0.42159271 32.95489471 -0.42159271 34.29571533 -0.45318604 C40.39531576 -0.45543189 40.39531576 -0.45543189 43.5390625 1.91235352 C47.66048502 7.80177263 46.41935739 16.1063531 46 23 C45.34145792 25.91121017 44.63372686 27.45864711 43 30 C40.24830195 30.91723268 38.61625072 31.12850959 35.78125 31.1328125 C34.51897583 31.13571289 34.51897583 31.13571289 33.23120117 31.13867188 C32.32990479 31.13416016 31.4286084 31.12964844 30.5 31.125 C29.57614502 31.12306641 28.65229004 31.12113281 27.70043945 31.11914062 C18.44259916 31.0624069 9.24002922 30.56427659 0 30 C0 20.1 0 10.2 0 0 Z " fill="#000000" transform="translate(362,42)"/>
</svg>
